<?xml version="1.0" standalone="no"?><!DOCTYPE svg PUBLIC "-//W3C//DTD SVG 1.1//EN" "http://www.w3.org/Graphics/SVG/1.1/DTD/svg11.dtd"><svg t="1718963311032" class="icon" viewBox="0 0 1024 1024" version="1.1" xmlns="http://www.w3.org/2000/svg" p-id="12712" xmlns:xlink="http://www.w3.org/1999/xlink" width="200" height="200"><path d="M802.2016 703.2832c21.54496-7.29088 44.48256-10.73152 66.7648-6.3488l71.96672 14.1312c20.19328 3.93216 38.21568-11.96032 33.75104-29.77792l-12.98432-51.48672c-6.79936-27.07456-1.39264-55.33696 8.43776-81.5104a222.78144 222.78144 0 0 0 14.17216-78.31552c0-137.87136-126.64832-249.61024-282.86976-249.61024-156.22144 0-282.86976 111.73888-282.86976 249.61024 0 137.8304 126.64832 249.56928 282.86976 249.56928 35.51232 0 69.46816-5.7344 100.7616-16.30208z" fill="#20C5FF" fill-opacity=".75" p-id="12713"></path><path d="M224.58368 839.68l-131.31776 29.16352A34.93888 34.93888 0 0 1 51.6096 827.14624l29.16352-131.2768a349.42976 349.42976 0 1 1 143.7696 143.81056z" fill="#115AFF" fill-opacity=".6" p-id="12714"></path><path d="M239.8208 565.20704c-3.44064-17.12128 11.0592-31.41632 28.4672-31.41632 17.44896 0 31.1296 14.5408 36.82304 31.04768a94.8224 94.8224 0 0 0 179.2 0c5.7344-16.50688 19.33312-31.04768 36.78208-31.04768 17.44896 0 31.9488 14.336 28.4672 31.41632a158.06464 158.06464 0 0 1-309.73952 0z" fill="#FFFFFF" p-id="12715"></path></svg>